Coordinates
version=1
nRows=29
nColumns=24
inDegrees=yes

Units are S.I. units (second, meters, Newtons, ...)
Angles are in degrees.

endheader
time	pelvis_tilt	pelvis_list	pelvis_rotation	pelvis_tx	pelvis_ty	pelvis_tz	hip_flexion_r	hip_adduction_r	hip_rotation_r	knee_angle_r	ankle_angle_r	subtalar_angle_r	mtp_angle_r	hip_flexion_l	hip_adduction_l	hip_rotation_l	knee_angle_l	ankle_angle_l	subtalar_angle_l	mtp_angle_l	lumbar_extension	lumbar_bending	lumbar_rotation
      2.01000000	     10.12838553	     -1.73002433	      0.75062012	      0.41661304	      1.01863606	      0.06850549	     -2.07956290	     -1.28999904	    -18.78718287	    -17.72644405	      1.01133316	     11.15708526	     -1.01973671	      2.88611878	     -6.80221478	    -13.75828156	    -48.95136182	     -3.89323185	    -17.05383105	     16.87433956	    -18.21165351	     13.81183263	     43.93724311
      2.01500000	     10.15664311	     -1.73922153	      0.51290899	      0.42256369	      1.01944602	      0.06904797	     -2.65448203	     -1.22764335	    -18.62848436	    -17.34776731	      1.10846275	     11.33706916	     -1.05209889	      3.31313426	     -6.73500044	    -14.10679540	    -48.08801819	     -3.75458550	    -17.05763628	     16.87711981	    -18.27765109	     13.73514846	     44.10621693
      2.02000000	     10.16449464	     -1.74995501	      0.25944541	      0.42846398	      1.02015379	      0.06959573	     -3.19352626	     -1.16968699	    -18.42946277	    -16.98691129	      1.21254472	     11.47226365	     -1.10500198	      3.75104063	     -6.66897117	    -14.45939537	    -47.18832202	     -3.62380566	    -17.03945295	     16.84800788	    -18.33741769	     13.66297997	     44.36120285
      2.02500000	     10.17304079	     -1.76493694	      0.00642492	      0.43434572	      1.02078816	      0.07015103	     -3.72770706	     -1.11195378	    -18.23474864	    -16.63480509	      1.31973393	     11.59308498	     -1.16388221	      4.17694890	     -6.61520333	    -14.82850295	    -46.25544846	     -3.51675957	    -17.01839456	     16.79046526	    -18.39850872	     13.58465997	     44.57591778
      2.03000000	     10.18347324	     -1.78882137	     -0.24448643	      0.44022303	      1.02136243	      0.07066915	     -4.26314114	     -1.05257665	    -18.04151219	    -16.28591289	      1.42765339	     11.72720995	     -1.22652826	      4.58632359	     -6.57121967	    -15.20027743	    -45.27957577	     -3.43769344	    -16.99366514	     16.70793828	    -18.46231328	     13.52451018	     44.80626084
      2.03500000	     10.18016456	     -1.81000953	     -0.50192007	      0.44607229	      1.02184090	      0.07118876	     -4.77435000	     -1.00334295	    -17.84507100	    -15.95201574	      1.55027138	     11.86355978	     -1.29468733	      4.99953655	     -6.52721167	    -15.57792714	    -44.27451279	     -3.38727254	    -16.96277463	     16.59884019	    -18.51601870	     13.45610075	     45.04163301
      2.04000000	     10.18621409	     -1.84169367	     -0.75321939	      0.45191193	      1.02226317	      0.07168529	     -5.29513808	     -0.94842181	    -17.66275572	    -15.62027424	      1.67355592	     12.00292682	     -1.36695836	      5.39095832	     -6.49778093	    -15.95776929	    -43.23793079	     -3.35925987	    -16.92704599	     16.46828658	    -18.58253161	     13.40292870	     45.28084422
      2.04500000	     10.15372993	     -1.87400357	     -1.01912697	      0.45768718	      1.02255698	      0.07219663	     -5.75669082	     -0.89688232	    -17.41623811	    -15.31946136	      1.92915311	     12.08609664	     -2.25835458	      5.82044691	     -6.47219299	    -16.33965321	    -42.19742238	     -3.19855613	    -16.76588318	     15.22458615	    -18.61905875	     13.34355824	     45.53680512
      2.05000000	     10.16753840	     -1.92370087	     -1.24759774	      0.46352364	      1.02283238	      0.07263365	     -6.28435501	     -0.83639664	    -17.28900283	    -15.00120565	      2.06300744	     12.30387808	     -2.27507134	      6.18301858	     -6.46811634	    -16.71373030	    -41.10722900	     -3.22912769	    -16.73275528	     15.18675303	    -18.69177038	     13.31392097	     45.74454954
      2.05500000	     10.14711145	     -1.97112128	     -1.49614364	      0.46931447	      1.02298985	      0.07308747	     -6.75956312	     -0.78414872	    -17.11372612	    -14.70471604	      2.20622712	     12.46736937	     -2.29643377	      6.57195988	     -6.46626456	    -17.10290242	    -39.99537878	     -3.27638117	    -16.68608240	     15.11961373	    -18.73734957	     13.27537177	     45.97341900
      2.06000000	     10.13107126	     -2.02623781	     -1.74538164	      0.47509721	      1.02308582	      0.07353295	     -7.23630644	     -0.72895273	    -16.94120746	    -14.41454887	      2.35382339	     12.62363966	     -2.31875749	      6.94230139	     -6.47679882	    -17.50167104	    -38.85763076	     -3.33663889	    -16.62531263	     15.02817050	    -18.79141953	     13.24480510	     46.20890220
      2.06500000	     10.10446150	     -2.08899325	     -1.99161198	      0.48086064	      1.02308140	      0.07396522	     -7.69586654	     -0.67033117	    -16.76737632	    -14.13749638	      2.51522716	     12.77662249	     -2.34182747	      7.31639346	     -6.49940118	    -17.90037328	    -37.70515655	     -3.40117966	    -16.54837837	     14.91231675	    -18.83788953	     13.22125336	     46.43804132
      2.07000000	     10.08149404	     -2.16651135	     -2.22843252	      0.48662157	      1.02300938	      0.07437556	     -8.15800950	     -0.59986095	    -16.60151170	    -13.86719391	      2.68031972	     12.93588051	     -2.36548900	      7.67750900	     -6.54125295	    -18.29773461	    -36.53711771	     -3.47374793	    -16.45249884	     14.77567704	    -18.88878297	     13.21649986	     46.67081654
      2.07500000	     10.05381754	     -2.24593317	     -2.46810446	      0.49236871	      1.02285930	      0.07476738	     -8.60840171	     -0.53459062	    -16.43870482	    -13.61087899	      2.85532349	     13.09435420	     -2.38448276	      8.03122835	     -6.58778891	    -18.70678787	    -35.34842820	     -3.55585513	    -16.33944741	     14.62599440	    -18.93907333	     13.21224972	     46.89646190
      2.08000000	     10.01664851	     -2.33684972	     -2.70442399	      0.49811663	      1.02263045	      0.07515276	     -9.04630703	     -0.45980610	    -16.27558215	    -13.36193645	      3.03787201	     13.25139772	     -2.40171884	      8.38451326	     -6.64977347	    -19.11631736	    -34.14471884	     -3.63944292	    -16.20314438	     14.46062218	    -18.98064880	     13.21873280	     47.11816519
      2.08500000	      9.96872942	     -2.43814771	     -2.93206501	      0.50384591	      1.02230348	      0.07550074	     -9.46754311	     -0.37906784	    -16.11457427	    -13.12591236	      3.23138141	     13.40912719	     -2.41760396	      8.74447598	     -6.72456387	    -19.52363597	    -32.93393407	     -3.71189055	    -16.04464068	     14.27385176	    -19.01608556	     13.24198823	     47.34428474
      2.09000000	      9.91528628	     -2.55359887	     -3.15596233	      0.50956480	      1.02190741	      0.07585914	     -9.87606809	     -0.28240323	    -15.93712510	    -12.90548866	      3.45258715	     13.50595295	     -2.65094976	      9.10373084	     -6.82461450	    -19.94372102	    -31.73217331	     -3.65643157	    -15.70012295	     13.26035338	    -19.04533842	     13.27618510	     47.55535103
      2.09500000	      9.87729956	     -2.66451517	     -3.36966152	      0.51530176	      1.02146546	      0.07615393	    -10.30456454	     -0.20177329	    -15.81188866	    -12.68448994	      3.66393950	     13.71360976	     -2.63061719	      9.42912609	     -6.90535889	    -20.34843708	    -30.48123336	     -3.78039609	    -15.57477164	     13.19464043	    -19.09188457	     13.30698928	     47.75083489
      2.10000000	      9.81989670	     -2.79072749	     -3.58058596	      0.52103652	      1.02092624	      0.07644366	    -10.70553362	     -0.10577030	    -15.66964461	    -12.48038351	      3.87645682	     13.87794089	     -2.60759700	      9.76726764	     -7.01030411	    -20.77130029	    -29.22840461	     -3.86907200	    -15.34919829	     13.12733786	    -19.11975883	     13.35552493	     47.95321797
      2.10500000	      9.76085113	     -2.92389458	     -3.78774454	      0.52676655	      1.02032103	      0.07670999	    -11.10012766	     -0.00697858	    -15.52894865	    -12.28732294	      4.09564648	     14.03150383	     -2.57942526	     10.09778532	     -7.12311075	    -21.20165755	    -27.96727807	     -3.94404359	    -15.08168220	     13.05537842	    -19.15002587	     13.41147145	     48.14914685
      2.11000000	      9.69958246	     -3.06318678	     -3.99582284	      0.53249790	      1.01964869	      0.07695629	    -11.48617240	      0.09251842	    -15.38648808	    -12.10947187	      4.32509096	     14.18863843	     -2.54518753	     10.41826582	     -7.24209910	    -21.64702371	    -26.69411192	     -4.00475029	    -14.77184055	     12.98123549	    -19.18153181	     13.47456219	     48.34635619
      2.11500000	      9.63732984	     -3.21033264	     -4.19482621	      0.53824212	      1.01892008	      0.07717888	    -11.86366070	      0.19625661	    -15.25235316	    -11.95502585	      4.55902141	     14.34339380	     -2.50512259	     10.72838194	     -7.36802244	    -22.10368765	    -25.40909914	     -4.05771658	    -14.41849655	     12.91255840	    -19.21030409	     13.54403949	     48.53094125
      2.12000000	      9.56497340	     -3.36812945	     -4.38805938	      0.54398249	      1.01811607	      0.07737474	    -12.22822462	      0.30941592	    -15.12164156	    -11.80637655	      4.80002033	     14.49212003	     -2.45963247	     11.04375846	     -7.50456489	    -22.56604651	    -24.12526356	     -4.08720589	    -14.01988406	     12.85219615	    -19.23309198	     13.62797568	     48.71517964
      2.12500000	      9.49321658	     -3.52462908	     -4.57748142	      0.54973998	      1.01726267	      0.07755614	    -12.58850324	      0.41625164	    -14.99620102	    -11.67155193	      5.04746287	     14.64356533	     -2.40770582	     11.34654590	     -7.63800969	    -23.04556658	    -22.83326584	     -4.10384077	    -13.57460976	     12.80268740	    -19.25508416	     13.70533477	     48.88881918
      2.13000000	      9.41097347	     -3.69146941	     -4.76526197	      0.55550202	      1.01633025	      0.07768891	    -12.93088283	      0.52805169	    -14.87437579	    -11.55476505	      5.30839283	     14.79569183	     -2.34823195	     11.65241917	     -7.77921162	    -23.54115002	    -21.54184083	     -4.09842940	    -13.07492007	     12.76780500	    -19.27275748	     13.80548648	     49.08017890
      2.13500000	      9.33847360	     -3.86386218	     -4.95400070	      0.56128237	      1.01536836	      0.07783306	    -13.28971282	      0.64445786	    -14.71178838	    -11.42510369	      5.55227720	     14.94349012	     -2.27716023	     11.93397429	     -7.92490112	    -24.04415659	    -20.25110722	     -4.01992913	    -12.48682507	     12.74019303	    -19.30275947	     13.90027428	     49.27689326
      2.14000000	      9.25100437	     -4.04009107	     -5.13381421	      0.56706265	      1.01433329	      0.07791495	    -13.61614003	      0.75806497	    -14.58391804	    -11.33722246	      5.81943183	     15.08658749	     -2.19758865	     12.22719534	     -8.06871670	    -24.56017681	    -18.96160687	     -3.97245687	    -11.88259752	     12.73105998	    -19.31607528	     14.00821573	     49.45216513
      2.14500000	      9.15774181	     -4.22149849	     -5.31149379	      0.57285603	      1.01325011	      0.07799127	    -13.93196910	      0.87549646	    -14.45968895	    -11.26179314	      6.08681794	     15.22305288	     -2.11049982	     12.51992221	     -8.21797568	    -25.09703407	    -17.68674834	     -3.90504392	    -11.22056322	     12.74680550	    -19.32564194	     14.11857210	     49.62523089
      2.15000000	      9.06149523	     -4.40475837	     -5.49075535	      0.57866831	      1.01212666	      0.07803915	    -14.24100940	      0.98947546	    -14.33170901	    -11.19739645	      6.35689901	     15.35348459	     -2.01462170	     12.80793226	     -8.36638687	    -25.65394888	    -16.42932549	     -3.82091086	    -10.50952429	     12.78607962	    -19.33520772	     14.23140095	     49.80225522
